<?xml version="1.0" encoding="UTF-8"?>
<svg width="24px" height="24px" viewBox="0 0 24 24" version="1.1" xmlns="http://www.w3.org/2000/svg" xmlns:xlink="http://www.w3.org/1999/xlink">
    <!-- Generator: Sketch 49.3 (51167) - http://www.bohemiancoding.com/sketch -->
    <title>Button</title>
    <desc>Created with Sketch.</desc>
    <defs></defs>
    <g id="Page-1" stroke="none" stroke-width="1" fill="none" fill-rule="evenodd">
        <g id="Button" transform="translate(1.000000, 1.000000)">
            <g id="Group" transform="translate(4.000000, 3.000000)" fill="#88A64C" fill-rule="nonzero">
                <path d="M9.87331749,6.15456517 C8.27190534,5.62219386 6.55081971,6.51063169 6.00126045,8.1405754 C5.45174526,6.50891451 3.7306376,5.62219386 2.12922545,6.15456517 C0.509259607,6.69559016 -0.374045624,8.4828367 0.151913877,10.1508295 C0.657622979,11.7410295 5.34723205,16 5.94731815,16 C6.54742628,16 11.3415706,11.7462037 11.8472797,10.1508295 C12.3748918,8.47937974 11.4915866,6.69213321 9.87331749,6.15456517 Z" id="Shape"></path>
                <path d="M12.7058358,2.67078995 L11.3344976,2.64995987 L10.78862,1.20063063 C10.6833778,0.933123124 10.3160984,0.933123124 10.2113823,1.20063063 L9.66550472,2.64995987 L8.29416659,2.67078995 C8.01033148,2.68778839 7.89499025,3.05559818 8.11504219,3.24032806 L9.22699543,4.23469009 L8.8480171,5.59248211 C8.77360341,5.87149001 9.06647446,6.10171716 9.30778744,5.95371399 L10.5000012,5.28112182 L11.6922149,5.95317132 C11.9335279,6.10117448 12.2263989,5.87094733 12.1519852,5.59193395 L11.7730069,4.23414193 L12.8849602,3.23978539 C13.1050068,3.05505551 12.9896709,2.68723474 12.7058358,2.67078995 Z" id="Shape" transform="translate(10.500000, 3.500000) rotate(23.000000) translate(-10.500000, -3.500000) "></path>
            </g>
            <circle id="Oval" stroke="#88A64C" stroke-width="2" cx="11" cy="11" r="11"></circle>
        </g>
    </g>
</svg>